<svg xmlns="http://www.w3.org/2000/svg" xmlns:xlink="http://www.w3.org/1999/xlink" width="128" height="128">
  <radialGradient id="a" cx="64" cy="4" r="120.0046" gradientUnits="userSpaceOnUse">
    <stop offset="0" stop-color="#42a5f5"/>
    <stop offset=".3522" stop-color="#42a5f5"/>
    <stop offset=".6798" stop-color="#2b8be2"/>
    <stop offset="1" stop-color="#1976d2"/>
  </radialGradient>
  <circle cx="64" cy="64" r="60" fill="url(#a)"/>
  <defs>
    <circle id="b" cx="64" cy="64" r="60"/>
  </defs>
  <clipPath id="c">
    <use xlink:href="#b" overflow="visible"/>
  </clipPath>
  <g fill="#424242" clip-path="url(#c)" opacity=".2">
    <path d="M175.51 118.43c1.83 0 1.1 6.17-.62 8.44-.47.62-.87.87-1.21.87-1.08 0-1.68-2.44-2.35-3.89-.89-1.92 3.25-5.03 3.43-5.15.28-.18.53-.27.75-.27m0-3c-.81 0-1.62.26-2.39.76-.34.22-1.6 1.19-2.69 2.38-2.67 2.91-2.46 5.16-1.82 6.54.12.26.26.62.41 1.01.71 1.84 1.79 4.62 4.66 4.62 1.36 0 2.57-.69 3.61-2.06 1.9-2.51 3.07-8.21 1.67-11.03-.7-1.39-1.99-2.22-3.45-2.22z"/>
    <path d="M169.27 124.85c.58 0 1.24.34 1.56.86 1.16 1.9 1.95 5.76-7.47 8.99-2.91.99-4.45 1.43-5.04 1.43-2.08 0 7.27-5.3 9.99-10.73.19-.39.56-.55.96-.55m0-3c-1.59 0-2.96.82-3.65 2.2-1.29 2.57-4.93 5.54-7.1 7.32-2.49 2.03-4.14 3.38-3.32 5.66.36 1.02 1.37 2.1 3.12 2.1.88 0 2.1-.25 6.01-1.59 5.48-1.87 8.68-4.27 9.78-7.32.71-1.98.46-4.14-.72-6.07-.86-1.4-2.47-2.3-4.12-2.3zM-56.39 10.76c.61 0 1.23.16 1.78.5l4.16 2.51c3.15 1.9 6.74 2.89 10.37 2.89 1.1 0 2.21-.09 3.32-.28l12.47-2.09c.21-.04.42-.05.63-.05 1.93 0 3.6 1.48 3.76 3.48l.42 5.13c.19 2.38-1.46 4.52-3.81 4.94l-1.33.24c-3 .53-5.54 2.53-6.75 5.33-.51 1.17-.25 2.53.64 3.44l7.79 7.89c.34.35.81.54 1.29.54.09 0 .19-.01.28-.02.81-.13 1.44-.79 1.52-1.61l.86-8.96c.19-1.96 1.83-3.45 3.8-3.45h.28c1.48 0 2.83.86 3.46 2.2l1.76 3.76c.3.64.93 1 1.58 1 .32 0 .65-.09.94-.28.29-.19.62-.28.94-.28.67 0 1.31.38 1.6 1.05l4.56 10.5c.98 2.25-.07 4.87-2.34 5.82l-3.68 1.54c-6.26 2.62-11.78 6.72-16.11 11.95l-.09.11c-.22.27-.33.61-.31.95l.25 3.89c.05.71-.47 1.34-1.17 1.43-.13.02-.25.03-.38.03-1.23 0-2.34-.8-2.71-2l-.01-.05c-.38-1.23-1.51-2.04-2.76-2.04-.14 0-.29.01-.44.03l-2.5.38c-1.88.28-3.47 1.53-4.2 3.29l-.73 1.76c-.25.62-.21 1.32.12 1.9l.08.13c.41.71 1.14 1.09 1.88 1.09.51 0 1.03-.18 1.45-.56.4-.36.92-.56 1.45-.56h.12l1.54.09c.9.05 1.5.95 1.2 1.8l-.22.63c-.43 1.23.48 2.52 1.79 2.52.96 0 1.77.72 1.88 1.68l.25 2.28c.1.87.78 1.56 1.65 1.67l.21.03c.08.01.16.01.24.01.66 0 1.27-.34 1.62-.91.96-1.59 2.68-2.54 4.51-2.54.23 0 .46.02.7.05l5.06.68c2.78.37 5.42 1.44 7.67 3.1l3.61 2.66c1.09.8 1.89 1.92 2.3 3.21.53 1.67 1.73 3.06 3.31 3.82l7.04 3.39c2.06.99 2.87 3.52 1.76 5.52l-4.85 8.78c-.55 1-1.5 1.72-2.62 1.97l-2.85.64c-1.73.39-3.01 1.86-3.14 3.63l-.03.44c-.14 1.78-.89 3.46-2.12 4.76l-14.9 15.63c-1.76 1.85-1.95 4.7-.44 6.76l1.06 1.45c.79 1.07-.01 2.54-1.27 2.54-.08 0-.17-.01-.26-.02l-2.75-.42c-1.78-.27-3.26-1.52-3.83-3.22l-1.18-3.49c-.59-1.76-.64-3.66-.13-5.44l6.22-21.92c.68-2.41-.02-5-1.82-6.74l-1.3-1.25c-1.5-1.45-2.54-3.31-2.98-5.36l-1.33-6.21c-.43-2-.05-4.1 1.05-5.83l.23-.36c.7-1.1.1-2.57-1.18-2.86l-.45-.1c-.44-.1-.83-.35-1.1-.72l-3.58-4.81c-.16-.21-.37-.37-.61-.46L-41 82c-2.23-.84-4.11-2.42-5.32-4.48l-8.49-14.51c-1.16-1.98-1.82-4.2-1.93-6.49l-.21-4.25c-.14-2.87-1.05-5.65-2.62-8.05l-2.16-3.31c-1.94-2.97-4.53-5.46-7.58-7.27l-.64-.38c-1.09-.65-2.32-.98-3.55-.98-.23 0-.45.01-.68.03-.6.06-1.2.09-1.8.09-2.13 0-4.24-.39-6.19-1.28l-7.24-3.33c-.56-.26-.8-1-.41-1.47l.01-.01 1.83-2.19c.67-.79.23-2.01-.79-2.2-.83-.16-1.32-1.03-1.02-1.82l.68-1.78c.19-.5.65-.84 1.18-.87 1.08-.07 21.55-.63 27.11-5.27.8-.66 1.96-.61 2.9-1.06.5-.24 1.01-.36 1.53-.36m0-3c-.96 0-1.93.22-2.8.64-.1.04-.39.12-.61.17-.8.19-1.89.45-2.9 1.29-2.14 1.78-9.79 3.92-24.87 4.56-.26.01-.43.02-.51.02-1.7.11-3.19 1.2-3.8 2.79l-.68 1.78c-.46 1.21-.37 2.55.27 3.68.21.37.47.71.77 1l-.56.67-.01.01-.02.02c-.76.93-1.04 2.14-.77 3.33.28 1.21 1.12 2.24 2.25 2.76l7.24 3.33c2.25 1.03 4.75 1.56 7.44 1.56.69 0 1.39-.03 2.09-.1.13-.01.26-.02.38-.02.71 0 1.41.19 2.02.55l.64.38c2.64 1.57 4.93 3.76 6.61 6.33l2.16 3.31c1.28 1.96 2.02 4.23 2.13 6.56l.21 4.25c.14 2.76.95 5.47 2.34 7.85l8.49 14.51c1.55 2.65 3.98 4.7 6.85 5.78l8.31 3.12 3.29 4.42c.49.66 1.13 1.18 1.87 1.52-1.13 2.21-1.47 4.72-.95 7.18l1.33 6.21c.56 2.64 1.89 5.02 3.83 6.89l1.3 1.25c1.01.97 1.4 2.41 1.01 3.76l-6.22 21.92c-.68 2.38-.61 4.88.18 7.22l1.18 3.49c.94 2.78 3.32 4.78 6.22 5.22l2.75.42c.24.04.48.05.71.05 1.73 0 3.3-.97 4.08-2.52.79-1.55.64-3.38-.39-4.79l-1.06-1.45c-.65-.89-.57-2.12.19-2.92L.5 130.13c1.71-1.79 2.75-4.13 2.94-6.59l.03-.44c.04-.46.36-.84.81-.94l2.85-.64c1.95-.44 3.62-1.7 4.58-3.44l4.85-8.78c.92-1.67 1.12-3.68.54-5.5-.58-1.82-1.9-3.34-3.63-4.17l-7.04-3.39c-.83-.4-1.47-1.14-1.75-2.02-.6-1.9-1.77-3.54-3.38-4.72l-3.61-2.66c-2.66-1.96-5.79-3.22-9.06-3.65l-5.06-.68c-.36-.05-.73-.07-1.09-.07-2.04 0-3.99.77-5.49 2.09-.23-1.97-1.61-3.55-3.42-4.1.21-1.11-.02-2.26-.66-3.23-.77-1.15-2-1.85-3.37-1.93l-1.54-.09c-.1-.01-.2-.01-.29-.01-.47 0-.94.06-1.39.19.35-.68 1.02-1.15 1.78-1.27l2.41-.37c.8 2.46 3.02 4.08 5.56 4.08.26 0 .52-.02.77-.05 2.26-.3 3.92-2.32 3.77-4.6l-.21-3.24c3.96-4.65 9.01-8.35 14.64-10.71l3.68-1.54c1.84-.77 3.26-2.22 4.01-4.07.74-1.85.72-3.88-.08-5.71l-4.56-10.5c-.75-1.73-2.46-2.85-4.35-2.85-.43 0-.85.06-1.25.17l-1.24-2.65c-1.12-2.38-3.54-3.92-6.17-3.92h-.28c-3.53 0-6.45 2.65-6.79 6.16l-.62 6.43-6-6.08c-.04-.04-.05-.09-.03-.14.82-1.88 2.51-3.21 4.52-3.57l1.33-.24c3.9-.69 6.6-4.18 6.28-8.13l-.42-5.13c-.28-3.5-3.25-6.23-6.75-6.24-.38 0-.75.03-1.13.09l-12.47 2.09c-.93.16-1.88.23-2.82.23-3.11 0-6.16-.85-8.82-2.46l-4.16-2.51c-.99-.55-2.14-.87-3.31-.87z"/>
    <path d="M3.97 5.8c1.1 0 2.18.2 2.99.57l12.29 2.32c1.27.58 1.69 1.47 1.07 2.26L4.84 26.12c-.52.66-1.7 1.15-3.14 1.3l-2.17.23c-.32.03-.63.05-.93.05-2.39 0-4.42-.96-4.33-2.16l.16-2.34c.05-.69-.62-1.35-1.78-1.76l-1.27-.45c-1.49-.52-2.13-1.45-1.59-2.3.39-.61.17-1.28-.59-1.8l-2.63-1.83c-.96-.66-1.04-1.53-.2-2.23l8.95-5.64c.67-.56 1.83-.94 3.16-1.03l4.89-.34c.19-.02.4-.02.6-.02m0-3c-.27 0-.55.01-.82.03l-4.89.34c-1.88.13-3.53.69-4.69 1.58l-8.81 5.55-.17.11-.16.13c-1.12.94-1.7 2.19-1.64 3.52.06 1.36.8 2.59 2.06 3.47l1.78 1.23c-.08.62-.02 1.26.19 1.87.49 1.42 1.76 2.56 3.56 3.19l.97.34-.08 1.17c-.08 1.15.34 2.28 1.17 3.18 1.28 1.37 3.58 2.19 6.15 2.19.41 0 .83-.02 1.25-.06l2.17-.23c1.29-.13 3.61-.61 5.03-2.25L22.43 13.1l.14-.14.12-.15c.81-1.03 1.11-2.32.81-3.55-.34-1.4-1.4-2.57-3-3.3l-.33-.15-.36-.07L7.83 3.48c-1.12-.44-2.48-.68-3.86-.68zM38.9 21.54c.62 0 1.24.29 1.64.82l3.86 5.2c.81 1.1.95 2.55.34 3.78v.01c-.36.73-.96 1.32-1.7 1.68l-1.99.95c-.2.09-.4.14-.6.14-.71 0-1.36-.56-1.38-1.34-.02-.51-.43-.8-.84-.8-.3 0-.6.15-.75.49-.14.31-.44.49-.76.49-.15 0-.31-.04-.45-.13l-.42-.27c-1.26-.81-1.69-2.44-1-3.77l1.09-2.08c.08-.16.11-.34.08-.51l-.22-1.36c-.14-.85.22-1.71.93-2.21l.97-.69c.38-.28.79-.4 1.2-.4m0-3c-1.05 0-2.06.32-2.91.93l-.97.69c-1.65 1.17-2.47 3.14-2.15 5.13l.1.65-.75 1.44c-1.42 2.72-.55 6.02 2.03 7.68l.42.27c.62.4 1.34.61 2.07.61.23 0 .46-.02.68-.06.79.76 1.86 1.22 3.04 1.22.66 0 1.29-.14 1.89-.43l1.99-.95c1.34-.64 2.44-1.72 3.09-3.06 1.11-2.25.87-4.89-.62-6.9l-3.86-5.2c-.95-1.26-2.46-2.02-4.05-2.02z"/>
    <path d="M129.99 8.7c.71 0 1.41.05 2.11.15l19.16 2.82 34.12 4.15c1.49.18 2.76 1.19 3.28 2.6l.88 2.4c.35.94 0 2-.83 2.56l-4.96 3.32c-.4.27-.85.44-1.32.51l-3.75.54c-1.17.17-1.97 1.26-1.8 2.42l.2 1.33c.04.26-.03.53-.2.74l-3.93 4.86c-.28.35-.67.51-1.06.51-.67 0-1.32-.48-1.38-1.27l-.16-1.96c-.07-.94.22-1.88.81-2.61l6.1-7.51c.18-.22.02-.55-.26-.55h-.01l-.74.02c-1.81.06-3.56.7-4.99 1.82l-1.7 1.34c-1.19.94-2.66 1.45-4.17 1.45h-.18l-1.06-.03h-.22c-1.99 0-3.91.75-5.39 2.09l-2.68 2.46c-.44.4-.4 1.1.07 1.46l1.4 1.05c.9.67 1.27 1.85.92 2.92l-3.3 10.1c-.12.37-.45.62-.83.65l-2.77.2c-.24.02-.46.12-.62.3l-2.25 2.39c-.22.24-.31.58-.22.89l.85 3.18c.09.33-.01.68-.25.92l-1.36 1.34c-.19.19-.43.27-.66.27-.42 0-.83-.28-.93-.76l-.64-3.12c-.03-.17-.11-.32-.23-.45l-1.47-1.62c-.19-.21-.44-.31-.7-.31-.22 0-.44.08-.62.23l-2.4 2.1c-.31.27-.41.72-.24 1.1l1.89 4.19c.66 1.46.66 3.14 0 4.6l-1.6 3.54c-.48 1.06-1.54 1.74-2.69 1.74h-.08l-4.68-.13h-.07c-.71 0-1.42.3-1.85.87-.86 1.13-.87 2.68-.05 3.81l1.11 1.55c.68.94.64 2.22-.1 3.11l-1.55 1.89c-.19.23-.46.35-.73.35-.26 0-.52-.11-.71-.32l-1.88-2.13c-.2-.22-.45-.32-.7-.32-.48 0-.94.36-.95.92-.02.64-.05 1.17-.08 1.23-.07.1 2.04 2.53 3.22 3.88.52.59.87 1.3 1.03 2.06l.57 2.69c.42 1.99 1.88 3.59 3.82 4.19l6.64 2.05c.4.12.57.6.34.95l-.02.03c-.12.18-.31.28-.52.28-.05 0-.09 0-.14-.02l-9.13-2.05c-1.15-.26-2.18-.87-2.96-1.75l-7.22-8.15c-.22-.25-.21-.62.03-.86l.1-.1c.12-.12.28-.18.44-.18.11 0 .22.03.32.09l2.65 1.57c.11.06.22.09.32.09.43 0 .78-.46.56-.91l-1.49-2.94-.06-.21-.58-4.8c-.07-.56-.55-.94-1.07-.94-.13 0-.25.02-.38.07-.15.06-.3.08-.45.08-.45 0-.87-.24-1.06-.67l-2.19-4.96c-.16-.36-.51-.56-.87-.56-.19 0-.38.06-.55.18l-3.99 2.87c-1.63 1.18-2.68 2.99-2.89 4.99l-.09.9c-.05.47-.28.9-.64 1.2l-.93.79c-.35.3-.77.43-1.18.43-.76 0-1.49-.47-1.75-1.28l-1.69-5.34c-.38-1.19-.98-2.29-1.79-3.24L98.6 67.9c-.57-.67-1.36-1.12-2.22-1.26l-5.14-.84c-2.13-.35-3.97-1.51-5.6-2.93-.27-.24-.62-.36-.96-.36-.38 0-.76.15-1.06.45-.43.44-.5 1.13-.25 1.7l1.35 3c.16.35.51.56.86.56.18 0 .37-.05.53-.16l.85-.58c.04-.03.08-.04.13-.04.9 0 3.59 4.03 1.88 5.03l-5.89 3.44c-.63.37-1.31.54-1.99.54-1.42 0-2.8-.77-3.51-2.13l-4.59-8.84c-.16-.31-.49-.51-.84-.51-.69 0-1.15.71-.86 1.34l4.93 10.91c.72 1.59 2.21 2.43 3.82 2.43.67 0 1.35-.14 2.01-.43.2-.09.39-.13.59-.13.92 0 1.72.91 1.51 1.91l-.33 1.6c-.34 1.65-1.18 3.15-2.42 4.29l-3.03 2.79c-1.33 1.22-2 3-1.83 4.8l-.23 5.16c-.01 1.1-.5 2.13-1.31 2.87-1.27 1.16-2.19 2.53-3.05 4.03l-3.83 6.74c-1.24 2.18-3.31 3.77-5.74 4.41l-1.16.31c-.27.07-.55.11-.82.11-1.31 0-2.53-.8-3.02-2.08l-3.52-9.23c-.83-2.17-1.07-4.51-.7-6.81l.11-.67c.28-1.74.18-3.52-.29-5.22l-1.67-6.03c-.5-1.81-2.15-3.06-4.02-3.06h-.18l-6.79.29c-.09 0-.19.01-.28.01-1.66 0-3.26-.63-4.48-1.76l-3.14-2.92c-1.67-1.56-2.53-3.8-2.31-6.08l.25-2.64c.32-3.41 1.7-6.63 3.95-9.22l1.07-1.23c1.9-2.18 4.47-3.67 7.31-4.21l7.33-1.4c.13-.02.25-.04.37-.04 1.05 0 1.95.84 1.97 1.93.02.74.28 1.45.87 1.9l4.32 3.29c.17.13.37.19.57.19.28 0 .55-.12.74-.35l1.8-2.21c.18-.22.45-.35.73-.35.09 0 .18.01.26.04l7.86 2.26c.09.03.18.04.26.04.39 0 .75-.24.89-.63l1.09-3.03c.21-.59-.2-1.22-.82-1.27l-3.81-.28c-.31-.02-.58-.19-.74-.46l-.18-.29c-.21-.35-.22-.8-.01-1.16.51-.83 1.08-1.61 1.7-2.36.23-.27.56-.42.91-.42.04 0 .08 0 .11.01 2.46.23 6.69.62 7.48.62.09 0 .13 0 .13-.01 0-.14 1.5-3.09 1.32-3.18-.15-.08-6.28-3.16-8.41-4.23-.13-.07-.28-.1-.42-.1-.3 0-.59.14-.77.4l-2.55 3.59c-.25.36-.23.84.06 1.17l.31.36c.17.2.22.48.12.72-.27.61-.62 1.24-1.01 1.82-.14.21-.38.32-.63.32-.08 0-.16-.01-.24-.04-.23-.07-.49-.14-.73-.14-.28 0-.51.09-.59.35l-.32 1.07c-.13.43-.52.68-.91.68-.25 0-.5-.1-.69-.31l-1.7-1.85c-.21-.23-.29-.54-.23-.84.27-1.28-.09-2.6-1.09-3.45l-1.95-1.64c-.23-.2-.53-.3-.82-.3-.24 0-.48.07-.68.22-.64.47-.57 1.23-.1 1.6l2.66 2.06c.82.64.63 2.1-.86 2.32-.1.01-.2.02-.29.02-.72 0-1.41-.38-1.85-.97l-1.99-2.65c-.64-.84-1.62-1.31-2.63-1.31-.4 0-.8.07-1.19.22l-.56.22c-1.17.45-2.16 1.26-2.84 2.32l-1.52 2.35c-.76 1.17-2.04 1.85-3.41 1.85-.2 0-.41-.02-.62-.05l-2.2-.34c-1.15-.18-1.98-1.19-1.92-2.49l.03-.61c.09-1.96 1.68-3.55 3.59-3.55.12 0 .25.01.37.02.07.01.14.01.21.01 1.37 0 2.3-1.45 1.67-2.71l-.76-1.54c-.57-1.15-.04-2.53 1.14-3.02l2.92-1.2c1.03-.42 1.78-1.34 1.98-2.43.13-.67.71-1.15 1.39-1.15h.39c.96 0 1.63-.93 1.34-1.84-.15-.47.02-1.01.47-1.3.19-.12.39-.18.6-.18.45 0 .88.29 1.08.75l.37.87c.16.38.51.64.92.68l5.21.58c.03 0 .07.01.1.01.38 0 .73-.23.88-.59l1.38-3.41c.15-.37.51-.59.88-.59.15 0 .3.03.44.11l.9.47c.13.06.23.08.33.08.22 0 .43-.11.54-.32.14-.25.1-.57-.12-.77l-.62-.59c-.28-.26-.38-.67-.23-1.04l.3-.77c.12-.31.4-.53.72-.59l1.35-.23c.85-.14 1.08-1.26.36-1.73l-.15-.1c-.15-.1-.33-.15-.52-.15h-.05c-.08 0-.16.01-.24.01-1.61 0-3.09-.93-3.78-2.41l-.32-.69c-.23-.5.01-1.09.53-1.29l.09-.03c.26-.1.46-.3.56-.56l1.15-3.17c.11-.31-.04-.65-.34-.79l-.39-.17c-.08-.04-.17-.05-.25-.05-.22 0-.43.12-.55.32l-3.35 6.06c-.25.46-.14 1.04.27 1.37 1.01.81 1.21 2.29.76 3.51l-1.4 3.82c-.08.21-.22.4-.42.5-.4.2-.83.29-1.24.29-1.14 0-2.22-.7-2.63-1.86l-.58-1.63c-.13-.38-.47-.6-.86-.6-.24 0-.49.08-.73.27l-1.24.94c-.29.22-.65.35-1.01.35-.15 0-.31-.02-.46-.07-.63-.22-1.03-.78-1.06-1.4l-.12-2.88c-.05-1.25.48-2.44 1.43-3.24 1.17-.98 2.12-2.19 2.55-3.66l.75-2.57c.37-1.27 1.26-2.33 2.45-2.91l3.94-1.94c.73-.36 1.53-.54 2.33-.54.33 0 .67.03 1 .1l12.49 2.41c.7.14 1.42.2 2.13.2.35 0 .69-.02 1.03-.05l23.79.47c.2 0 .4.01.6.01 2.39 0 4.78-.28 7.11-.83l19.8-4.7c.5-.07 1.01-.1 1.52-.1M86.11 56.25c.48 0 .9-.37.94-.86.12-1.39.29-3.74.13-4.02-.14-.25-1.07-1.41-1.76-2.24-.38-.46-.24-1.16.29-1.44l.8-.42c.39-.21.59-.65.47-1.08l-.13-.49c-.1-.43-.49-.7-.9-.7-.16 0-.32.04-.47.12l-3.81 2.16c-.45.25-.61.81-.37 1.27l1.74 3.29c.12.23.14.49.07.73l-.64 1.99c-.18.55.18 1.13.74 1.22l2.73.46c.06.01.12.01.17.01M129.99 5.7c-.61 0-1.23.03-1.84.1-.13.01-.25.03-.38.06l-19.8 4.7c-2.1.5-4.26.75-6.42.75-.18 0-.36 0-.54-.01l-23.79-.47h-.06c-.09 0-.18 0-.28.01-.25.02-.51.03-.76.03-.52 0-1.05-.05-1.56-.15l-12.49-2.4c-.52-.1-1.04-.15-1.57-.15-1.26 0-2.52.29-3.65.85l-3.94 1.94c-1.94.95-3.4 2.69-4.01 4.76l-.75 2.57c-.22.76-.76 1.5-1.6 2.2-1.66 1.39-2.6 3.51-2.51 5.67l.12 2.88c.07 1.76 1.13 3.28 2.73 3.98-.14.33-.24.67-.3 1.03-1.55.46-2.76 1.76-3.07 3.41-.02.09-.08.17-.17.21l-2.92 1.2c-1.33.54-2.39 1.63-2.9 2.97-.51 1.34-.44 2.85.2 4.14-2.96.55-5.24 3.12-5.39 6.29l-.04.63c-.1 2.08.89 3.91 2.5 4.89-.59.51-1.15 1.06-1.67 1.66l-1.07 1.23c-2.67 3.08-4.28 6.85-4.67 10.9l-.25 2.64c-.3 3.18.92 6.38 3.26 8.56l3.14 2.92c1.78 1.65 4.09 2.57 6.52 2.57.14 0 .27 0 .41-.01l6.79-.29h.05c.53 0 .99.35 1.13.86l1.67 6.03c.36 1.29.43 2.62.22 3.95l-.11.67c-.45 2.81-.15 5.69.86 8.35l3.52 9.23c.91 2.4 3.25 4.01 5.82 4.01.53 0 1.07-.07 1.59-.21l1.16-.31c3.19-.84 5.95-2.96 7.58-5.83l3.83-6.74c.88-1.54 1.61-2.53 2.46-3.3 1.42-1.3 2.26-3.12 2.29-5l.22-5.12c.01-.14 0-.28-.01-.42-.08-.86.24-1.72.88-2.3l3.03-2.79c1.71-1.58 2.86-3.62 3.33-5.9l.33-1.6c.28-1.36-.07-2.75-.95-3.83-.03-.04-.07-.08-.1-.12l4.43-2.59c1.35-.79 2.55-2.58 1.83-5.23-.07-.24-.16-.53-.29-.84l3.86.63c.16.03.31.11.42.24l2.67 3.15c.55.65.96 1.39 1.22 2.21l1.69 5.34c.64 2.02 2.49 3.37 4.61 3.37 1.14 0 2.25-.41 3.12-1.15l.93-.79c.95-.81 1.55-1.94 1.68-3.18l.09-.9c.12-1.15.73-2.19 1.66-2.87l1.93-1.39 1.17 2.64c.54 1.23 1.65 2.1 2.94 2.37l.25 2.08c-.66.15-1.27.48-1.76.97l-.1.1c-1.35 1.35-1.42 3.54-.15 4.97l7.22 8.15c1.2 1.36 2.78 2.29 4.55 2.69l9.13 2.05c.26.06.53.09.8.09 1.22 0 2.34-.6 3.02-1.62.65-.98.8-2.19.42-3.26-.38-1.07-1.26-1.91-2.35-2.25l-6.64-2.05c-.9-.28-1.58-1.02-1.77-1.94l-.57-2.69c-.17-.79-.46-1.54-.86-2.24.4-.23.76-.54 1.06-.91l1.55-1.89c1.59-1.94 1.68-4.73.21-6.77l-1.05-1.45 4.07.12h.17c2.33 0 4.46-1.37 5.43-3.5l1.6-3.54c.67-1.49.9-3.13.68-4.72.58.32 1.24.51 1.93.51 1.04 0 2.02-.4 2.77-1.14l1.36-1.34c1.01-1 1.41-2.47 1.04-3.84l-.56-2.08.91-.97 1.97-.14c1.61-.12 2.97-1.18 3.47-2.71l3.3-10.1c.67-2.06.1-4.3-1.42-5.78l.89-.82c.92-.84 2.11-1.31 3.36-1.31h.13l1.06.03h.26c.93 0 1.85-.13 2.73-.39-.59 1.11-.86 2.38-.76 3.66l.16 1.96c.18 2.3 2.06 4.03 4.37 4.03 1.32 0 2.55-.59 3.39-1.62l3.93-4.86c.7-.86 1-1.98.83-3.08l-.07-.46 2.87-.42c.91-.13 1.8-.47 2.56-.98l4.96-3.32c1.99-1.33 2.81-3.84 1.98-6.09l-.88-2.4c-.91-2.48-3.11-4.22-5.73-4.54l-34.09-4.15-19.13-2.82c-.82-.06-1.68-.13-2.53-.13zM69.45 49.66l.26-.36c.3.15.61.31.94.47-.39-.03-.78-.07-1.2-.11zm-21.9 3.57c.33-.47.79-.82 1.33-1.03l.56-.22c.03-.01.07-.02.1-.02.04 0 .15.01.23.11l.53.7c-.28.01-.55.04-.82.09l-1.93.37zm8.46 3.65c.24 0 .49-.02.73-.05.36-.05.7-.14 1.03-.26l1.1 1.2c.06.07.12.13.19.19-.26.19-.5.42-.71.68l-.54.67-2.43-1.85c-.01-.21-.04-.42-.08-.62.23.03.47.04.71.04z"/>
    <path d="M159.83 39.97h.02c.87.02 1.53.8 1.41 1.67l-.53 3.66c-.13.89.22 1.79.93 2.36.69.55.69 1.6.01 2.16-.78.63-1.65 1.37-1.87 1.65-.24.31-.32 2.27-.35 3.91-.03 1.46-.79 2.81-2.03 3.59l-6.37 4c-.11.07-.22.1-.33.1-.31 0-.6-.23-.63-.58l-.14-1.9c-.02-.21.07-.41.24-.54l3.13-2.46c1.11-.88 2-2.01 2.59-3.3l2.27-5.02c.35-.78.57-1.63.62-2.49l.42-6.21c0-.34.28-.6.61-.6m0-3c-1.9 0-3.49 1.49-3.62 3.38l-.42 6.21c-.03.5-.16.99-.36 1.45l-2.27 5.02c-.38.85-.97 1.6-1.7 2.18l-3.13 2.46c-.95.75-1.47 1.91-1.38 3.12l.14 1.9c.14 1.88 1.73 3.36 3.62 3.36.68 0 1.35-.19 1.93-.56l6.37-4c2.11-1.32 3.39-3.59 3.43-6.08.02-1.24.06-2 .1-2.44.23-.2.55-.47 1.02-.85 1.03-.84 1.62-2.08 1.61-3.41 0-1.24-.53-2.41-1.44-3.24l.49-3.41c.18-1.26-.18-2.54-1-3.51-.82-.97-2.02-1.55-3.29-1.58h-.1z"/>
    <path d="M144.75 66.11c.3 0 .55.21.61.5l.25 1.18c.12.59 0 1.2-.35 1.7-.31.44-.45.98-.38 1.51l.08.68h-.67l-1.04-1.66c-.41-.66-.44-1.48-.07-2.16l.75-1.41c.11-.2.32-.33.55-.33h.27m0-3.01h-.27c-1.34 0-2.57.74-3.2 1.92l-.75 1.41c-.86 1.62-.8 3.6.17 5.16l1.04 1.66.88 1.42h5.72l-.4-3.36-.05-.38c.69-1.12.93-2.47.66-3.77L148.3 66c-.35-1.67-1.85-2.89-3.55-2.89zm-4.03 19.5c.16 0 .32.03.47.08.58.2.97.75.97 1.36v1.71c0 .12-.01.23-.04.34l-1.05 4.28c-.2.82-.93 1.37-1.74 1.37-.14 0-.27-.02-.41-.05l-4.04-.94c-.45-.1-.82-.42-1-.84l-.78-1.83c-.29-.68-.02-1.47.63-1.82l6.29-3.48c.22-.12.46-.18.7-.18m0-3c-.75 0-1.49.19-2.15.55l-6.29 3.48c-2 1.11-2.83 3.52-1.94 5.63l.78 1.83c.55 1.3 1.7 2.26 3.07 2.58l4.04.94c.36.08.73.13 1.09.13 2.21 0 4.13-1.5 4.66-3.65l1.05-4.28c.08-.35.13-.7.13-1.06v-1.71c0-1.89-1.2-3.58-2.99-4.19-.46-.17-.95-.25-1.45-.25zm13.61 8.87c.36 0 .72.08 1.05.23l7.31 3.41c.78.36 1.38 1.02 1.66 1.83l.94 2.67-.18.97-2.6-2.32c-.38-.34-.87-.51-1.35-.51-.51 0-1.01.19-1.4.56-.1.1-.24.16-.39.17l-2.16.17c-.08.01-.16.01-.24.01-.89 0-1.74-.38-2.33-1.06l-3.22-3.69c-.68-.78-.23-2 .79-2.15l1.75-.26c.12-.02.25-.03.37-.03m0-3c-.27 0-.54.02-.81.06l-1.75.26c-1.56.23-2.86 1.3-3.4 2.77-.54 1.48-.24 3.13.8 4.32l3.22 3.69c1.16 1.33 2.83 2.09 4.59 2.09.16 0 .31-.01.47-.02l2.16-.17c.53-.04 1.04-.2 1.49-.45l2.01 1.8 3.97 3.55.98-5.23.18-.97.15-.79-.27-.76-.94-2.67c-.55-1.56-1.73-2.85-3.22-3.55L156.65 86c-.72-.34-1.52-.52-2.32-.52z"/>
    <path d="M150.11 97.35c.14 0 .28.01.42.02l3.28.38c.38.04.63.41.53.77l-.52 2.1c-.08.33.12.67.45.76l2.27.59c.13.03.26.05.39.05.85 0 1.58-.72 1.53-1.62l-.09-1.76c-.02-.36.27-.66.62-.66h.03l.43.02c.24.01.45.16.55.38l.42.96c.94 2.17 2.28 4.14 3.95 5.81l3.25 3.25c.74.74 1.05 1.79.84 2.81l-1.81 8.7c-.17.83-.66 1.56-1.35 2.04l-1.16.8c-.66.45-1.43.69-2.21.69-.43 0-.86-.07-1.28-.22l-1.85-.64c-1.2-.42-2.19-1.26-2.8-2.38l-.35-.65c-.18-.34-.53-.52-.87-.52-.26 0-.52.1-.71.3-.19.2-.45.3-.72.3-.22 0-.44-.07-.63-.22l-1.41-1.15c-.63-.52-1.42-.79-2.22-.79-.35 0-.69.05-1.03.16l-5.45 1.68c-.47.15-.95.22-1.44.22-1.05 0-2.09-.34-2.94-.99l-1.38-1.04c-.48-.37-.59-1.05-.23-1.54.18-.25.24-.56.19-.85l-1.3-6.94c-.21-1.13.44-2.25 1.53-2.62l3.65-1.24c.81-.27 1.55-.73 2.16-1.32l4.75-4.62c.68-.66 1.58-1.02 2.51-1.02m0-3c-1.73 0-3.36.66-4.6 1.87l-4.75 4.62c-.29.28-.65.5-1.03.63l-3.65 1.24c-2.49.84-4 3.43-3.52 6.01l1.18 6.28c-.73 1.71-.24 3.72 1.31 4.89l1.38 1.04c1.36 1.03 3.05 1.6 4.76 1.6.79 0 1.57-.12 2.32-.35l5.45-1.68c.05-.02.1-.02.15-.02.12 0 .23.04.32.11l1.41 1.15c.71.58 1.6.9 2.52.9.21 0 .42-.02.63-.05.96 1.3 2.29 2.28 3.84 2.82l1.85.64c.73.25 1.49.38 2.27.38 1.4 0 2.76-.42 3.91-1.21l1.16-.8c1.34-.92 2.26-2.3 2.59-3.9l1.81-8.7c.42-2.02-.2-4.09-1.66-5.55l-3.25-3.25c-1.41-1.41-2.53-3.05-3.32-4.88l-.42-.96c-.55-1.27-1.8-2.12-3.18-2.18l-.43-.02h-.15c-.94 0-1.84.37-2.52 1.02-.59-.68-1.42-1.12-2.32-1.23l-3.28-.38c-.27-.02-.52-.04-.78-.04zm-67.16 4.97c.45 0 .88.27 1.05.73l.84 2.28c.19.51.18 1.07-.01 1.57l-1.87 4.84c-.27.69-.93 1.14-1.66 1.14-.06 0-.13 0-.19-.01-1.7-.18-2.9-1.75-2.65-3.44l.34-2.25c.18-1.16.75-2.22 1.63-3l1.78-1.58c.21-.19.48-.28.74-.28m0-3c-1.01 0-1.98.37-2.73 1.04l-1.78 1.58c-1.4 1.24-2.32 2.94-2.6 4.79l-.34 2.25c-.25 1.61.18 3.27 1.18 4.57.99 1.29 2.49 2.13 4.11 2.31.17.02.34.03.52.03 1.96 0 3.76-1.23 4.46-3.06l1.87-4.84c.46-1.19.47-2.5.03-3.69l-.84-2.28c-.61-1.62-2.16-2.7-3.88-2.7zm-99.61-19.86c.61 0 1.21.09 1.8.26 2.19.65 6.05 1.79 7.91 2.33.52.15.75.77.44 1.23l-.46.68c-.24.36-.65.58-1.08.58-.07 0-.14-.01-.2-.02l-8.13-1.29c-.38-.06-.75-.09-1.13-.09-.36 0-.72.03-1.08.08l-1.48.22c-.2.03-.4.05-.61.05-1.09 0-2.14-.44-2.91-1.23l-.33-.34c-.31-.32-.16-.85.27-.95 1.35-.33 3.84-.95 5.5-1.35.5-.1.99-.16 1.49-.16m0-3c-.73 0-1.47.09-2.18.26-1.67.4-4.16 1.02-5.52 1.35-1.24.31-2.23 1.26-2.58 2.49-.35 1.23-.01 2.56.88 3.47l.33.34c1.32 1.35 3.16 2.13 5.06 2.13.35 0 .71-.03 1.05-.08l1.48-.22c.21-.03.42-.05.63-.05.22 0 .44.02.66.05l8.13 1.29c.22.04.45.05.67.05 1.44 0 2.78-.72 3.58-1.91l.46-.68c.67-1 .82-2.28.41-3.41-.41-1.13-1.35-2.01-2.5-2.36l-4.38-1.29-3.53-1.04c-.86-.26-1.75-.39-2.65-.39z"/>
    <path d="M-2.61 80.09c.07 0 .14.01.21.02 2.13.35 6.69 2.88 5.77 3.68-.24.2-.54.31-.85.31-.11 0-.22-.01-.34-.04l-6.6-1.77c-.14-.04-.2-.2-.12-.32l.85-1.3c.24-.37.65-.58 1.08-.58m0-3c-1.45 0-2.8.73-3.59 1.94l-.85 1.3c-.56.86-.68 1.94-.31 2.9.37.96 1.18 1.69 2.17 1.95l6.6 1.77c.36.1.74.15 1.11.15 1.03 0 2.02-.37 2.8-1.04 1-.86 1.4-2.18 1.04-3.46-.84-3-6.57-5.17-8.27-5.45-.23-.04-.47-.06-.7-.06z"/>
  </g>
  <g clip-path="url(#c)">
    <linearGradient id="d" x1="173.8844" x2="173.8844" y1="7.6587" y2="152.3054" gradientUnits="userSpaceOnUse">
      <stop offset="0" stop-color="#aeea00"/>
      <stop offset=".2373" stop-color="#ade903"/>
      <stop offset=".3915" stop-color="#a9e40b"/>
      <stop offset=".522" stop-color="#a2dc1a"/>
      <stop offset=".6386" stop-color="#98d12f"/>
      <stop offset=".7459" stop-color="#8bc34a"/>
      <stop offset="1" stop-color="#8bc34a"/>
    </linearGradient>
    <path fill="url(#d)" d="M174.75 118.71c-.18.12-4.32 3.22-3.43 5.15.89 1.92 1.65 5.56 3.57 3.02 1.92-2.55 2.6-9.96-.14-8.17z"/>
    <linearGradient id="e" x1="164.7636" x2="164.7636" y1="7.6587" y2="152.3054" gradientUnits="userSpaceOnUse">
      <stop offset="0" stop-color="#aeea00"/>
      <stop offset=".2373" stop-color="#ade903"/>
      <stop offset=".3915" stop-color="#a9e40b"/>
      <stop offset=".522" stop-color="#a2dc1a"/>
      <stop offset=".6386" stop-color="#98d12f"/>
      <stop offset=".7459" stop-color="#8bc34a"/>
      <stop offset="1" stop-color="#8bc34a"/>
    </linearGradient>
    <path fill="url(#e)" d="M168.31 125.4c.46-.93 1.98-.57 2.52.31 1.16 1.9 1.95 5.76-7.47 8.99-13.03 4.45 1.44-2.31 4.95-9.3z"/>
    <linearGradient id="f" x1="-37.7807" x2="-37.7807" y1="7.6587" y2="152.3054" gradientUnits="userSpaceOnUse">
      <stop offset="0" stop-color="#aeea00"/>
      <stop offset=".2373" stop-color="#ade903"/>
      <stop offset=".3915" stop-color="#a9e40b"/>
      <stop offset=".522" stop-color="#a2dc1a"/>
      <stop offset=".6386" stop-color="#98d12f"/>
      <stop offset=".7459" stop-color="#8bc34a"/>
      <stop offset="1" stop-color="#8bc34a"/>
    </linearGradient>
    <path fill="url(#f)" d="m-.47 91.95-3.61-2.66c-2.26-1.66-4.9-2.73-7.67-3.1l-5.06-.68c-2.08-.28-4.12.7-5.2 2.49-.39.64-1.11.99-1.85.9l-.21-.03c-.87-.11-1.55-.8-1.65-1.67l-.25-2.28c-.11-.96-.92-1.68-1.88-1.68-1.3 0-2.22-1.29-1.79-2.52l.22-.63c.3-.85-.3-1.75-1.2-1.8l-1.54-.09c-.58-.03-1.15.17-1.58.56-1.02.93-2.64.67-3.33-.53l-.08-.13c-.33-.58-.38-1.28-.12-1.9l.73-1.76c.73-1.76 2.32-3 4.2-3.29l2.5-.38c1.42-.21 2.78.64 3.2 2.01l.01.05c.41 1.32 1.71 2.16 3.08 1.98.71-.09 1.22-.72 1.17-1.43l-.25-3.89c-.02-.35.09-.69.31-.95l.09-.11c4.33-5.22 9.86-9.32 16.11-11.95l3.68-1.54c2.26-.95 3.32-3.57 2.34-5.82l-4.56-10.5c-.43-.98-1.63-1.35-2.53-.77-.88.57-2.07.23-2.51-.72l-1.76-3.76c-.63-1.34-1.98-2.2-3.46-2.2h-.28c-1.97 0-3.61 1.49-3.8 3.45l-.86 8.96c-.08.82-.7 1.48-1.52 1.61-.58.09-1.16-.1-1.57-.52l-7.79-7.89c-.9-.91-1.15-2.27-.64-3.44 1.21-2.8 3.75-4.8 6.75-5.33l1.33-.24c2.35-.42 4-2.55 3.81-4.94l-.42-5.13c-.18-2.21-2.21-3.79-4.39-3.42l-12.47 2.09c-4.73.79-9.59-.13-13.69-2.61l-4.16-2.51c-1.02-.62-2.26-.65-3.28-.16-.93.45-2.1.4-2.9 1.06-5.57 4.64-26.04 5.2-27.11 5.27-.53.03-.99.37-1.18.87l-.68 1.78c-.3.79.19 1.66 1.02 1.82 1.02.19 1.46 1.41.79 2.2l-1.83 2.19-.01.01c-.39.48-.16 1.22.41 1.47l7.24 3.33c2.5 1.15 5.25 1.46 7.99 1.19 1.45-.14 2.93.17 4.23.94l.64.38c3.05 1.81 5.64 4.3 7.58 7.27l2.16 3.31c1.57 2.41 2.47 5.18 2.62 8.05l.21 4.25c.11 2.29.78 4.51 1.93 6.49l8.49 14.51c1.2 2.06 3.08 3.64 5.32 4.48l8.77 3.29c.24.09.46.25.61.46l3.58 4.81c.27.36.66.62 1.1.72l.45.1c1.28.29 1.88 1.76 1.18 2.86l-.23.36c-1.1 1.73-1.48 3.82-1.05 5.83l1.33 6.21c.44 2.04 1.47 3.91 2.98 5.36l1.3 1.25c1.8 1.74 2.5 4.33 1.82 6.74l-6.22 21.92c-.51 1.79-.46 3.68.13 5.44l1.18 3.49c.58 1.7 2.05 2.95 3.83 3.22l2.75.42c1.4.22 2.37-1.37 1.53-2.52l-1.06-1.45c-1.51-2.06-1.32-4.91.44-6.76l14.9-15.63c1.23-1.29 1.98-2.97 2.12-4.76l.03-.44c.14-1.77 1.41-3.24 3.14-3.63l2.85-.64c1.11-.25 2.07-.97 2.62-1.97l4.85-8.78c1.11-2.01.3-4.53-1.76-5.52l-7.04-3.39c-1.58-.76-2.78-2.14-3.31-3.82-.42-1.26-1.22-2.38-2.31-3.18z"/>
    <linearGradient id="g" x1="529.3334" x2="529.3334" y1="7.6587" y2="152.3054" gradientTransform="matrix(-1 0 0 1 532.5348 0)" gradientUnits="userSpaceOnUse">
      <stop offset="0" stop-color="#aeea00"/>
      <stop offset=".2373" stop-color="#ade903"/>
      <stop offset=".3915" stop-color="#a9e40b"/>
      <stop offset=".522" stop-color="#a2dc1a"/>
      <stop offset=".6386" stop-color="#98d12f"/>
      <stop offset=".7459" stop-color="#8bc34a"/>
      <stop offset="1" stop-color="#8bc34a"/>
    </linearGradient>
    <path fill="url(#g)" d="m-5.74 25.53.16-2.34c.05-.69-.62-1.35-1.78-1.76l-1.27-.45c-1.49-.52-2.13-1.45-1.59-2.3.39-.61.17-1.28-.59-1.8l-2.63-1.83c-.96-.66-1.04-1.53-.2-2.23l8.95-5.64c.67-.56 1.83-.94 3.16-1.03l4.89-.34c1.31-.08 2.64.12 3.6.56l12.29 2.32c1.27.58 1.69 1.47 1.07 2.26L4.84 26.12c-.52.66-1.7 1.15-3.14 1.3l-2.17.23c-2.77.29-5.36-.76-5.27-2.12z"/>
    <radialGradient id="h" cx="61.6667" cy="12.3333" r="103.9749" gradientUnits="userSpaceOnUse">
      <stop offset="0" stop-color="#aeea00"/>
      <stop offset=".2373" stop-color="#ade903"/>
      <stop offset=".3915" stop-color="#a9e40b"/>
      <stop offset=".522" stop-color="#a2dc1a"/>
      <stop offset=".6386" stop-color="#98d12f"/>
      <stop offset=".7459" stop-color="#8bc34a"/>
      <stop offset="1" stop-color="#8bc34a"/>
    </radialGradient>
    <path fill="url(#h)" d="M37.49 32.46c.36-.8 1.56-.57 1.58.31.03 1 1.08 1.63 1.98 1.2l1.99-.95c.74-.35 1.33-.94 1.7-1.68v-.01c.6-1.22.47-2.68-.34-3.78l-3.86-5.2c-.66-.89-1.91-1.09-2.82-.45l-.97.69c-.71.5-1.07 1.36-.93 2.21l.22 1.36c.03.18 0 .36-.08.51l-1.09 2.08c-.69 1.33-.26 2.96 1 3.77l.42.27c.42.3.99.13 1.2-.33z"/>
    <radialGradient id="i" cx="61.6667" cy="12.3333" r="103.9749" gradientUnits="userSpaceOnUse">
      <stop offset="0" stop-color="#aeea00"/>
      <stop offset=".2373" stop-color="#ade903"/>
      <stop offset=".3915" stop-color="#a9e40b"/>
      <stop offset=".522" stop-color="#a2dc1a"/>
      <stop offset=".6386" stop-color="#98d12f"/>
      <stop offset=".7459" stop-color="#8bc34a"/>
      <stop offset="1" stop-color="#8bc34a"/>
    </radialGradient>
    <path fill="url(#i)" d="m189.55 20.83-.88-2.4c-.52-1.41-1.78-2.42-3.28-2.6l-34.12-4.15-19.17-2.82c-1.21-.18-2.43-.2-3.64-.07l-19.8 4.7c-2.53.6-5.12.88-7.71.83l-23.79-.47c-1.06.1-2.12.05-3.17-.16l-12.49-2.4c-1.13-.22-2.3-.06-3.33.45l-3.94 1.94c-1.19.58-2.08 1.64-2.45 2.91l-.75 2.57c-.43 1.47-1.38 2.68-2.55 3.66-.95.8-1.49 2-1.43 3.24l.12 2.88c.03.62.42 1.19 1.06 1.4.5.17 1.05.04 1.47-.28l1.24-.94c.64-.49 1.38-.26 1.6.34l.58 1.63c.56 1.57 2.37 2.31 3.88 1.56.2-.1.35-.29.42-.5l1.4-3.82c.45-1.22.26-2.7-.76-3.51-.41-.33-.52-.91-.27-1.37l3.35-6.06c.16-.28.5-.4.8-.27l.39.17c.3.13.45.48.34.79l-1.15 3.17c-.09.26-.3.47-.56.56l-.09.03c-.52.19-.76.79-.53 1.29l.32.69c.72 1.55 2.32 2.5 4.02 2.4.2-.01.4.04.57.15l.15.1c.72.47.49 1.58-.36 1.73l-1.35.23c-.33.06-.6.28-.72.59l-.3.77c-.14.36-.05.77.23 1.04l.62.59c.21.2.26.52.12.77-.17.29-.53.4-.83.25l-.9-.47c-.5-.26-1.1-.03-1.31.48l-1.38 3.41c-.16.39-.56.63-.98.59l-5.21-.58c-.41-.04-.76-.31-.92-.68l-.37-.87c-.29-.67-1.07-.97-1.68-.57-.44.29-.62.82-.47 1.3.29.91-.39 1.84-1.34 1.84h-.39c-.68 0-1.26.48-1.39 1.15-.21 1.1-.95 2.01-1.98 2.43l-2.92 1.2c-1.18.48-1.71 1.87-1.14 3.02l.76 1.54c.65 1.32-.41 2.85-1.89 2.69-2.07-.22-3.86 1.44-3.96 3.53l-.03.61c-.06 1.31.77 2.32 1.92 2.49l2.2.34c1.58.24 3.15-.47 4.02-1.81l1.52-2.35c.68-1.05 1.68-1.86 2.84-2.32l.56-.22c1.37-.53 2.93-.09 3.82 1.09l1.99 2.65c.5.66 1.32 1.07 2.14.95 1.49-.22 1.68-1.69.86-2.32l-2.66-2.06c-.47-.37-.54-1.13.1-1.6.45-.33 1.08-.28 1.5.08l1.95 1.64c1 .84 1.36 2.17 1.09 3.45-.06.3.02.61.23.84l1.7 1.85c.5.54 1.39.33 1.6-.37l.32-1.07c.15-.49.83-.38 1.33-.22.32.1.68-.01.87-.28.4-.58.74-1.2 1.01-1.82.11-.24.06-.52-.12-.72l-.31-.36c-.29-.33-.31-.81-.06-1.17l2.55-3.59c.27-.38.77-.51 1.19-.3 2.13 1.07 8.26 4.15 8.41 4.23.18.09-1.32 3.04-1.32 3.18 0 .1-4.89-.35-7.61-.6-.39-.04-.78.12-1.03.42-.62.75-1.19 1.53-1.7 2.36-.22.35-.21.8.01 1.16l.18.29c.16.26.43.43.74.46l3.81.28c.63.05 1.03.68.82 1.27l-1.09 3.03c-.17.47-.67.73-1.15.59l-7.86-2.26c-.36-.1-.76.02-1 .31l-1.8 2.21c-.32.4-.9.47-1.31.16l-4.32-3.29c-.59-.45-.85-1.16-.87-1.9-.03-1.22-1.14-2.13-2.34-1.9l-7.33 1.4c-2.84.54-5.42 2.03-7.31 4.21l-1.07 1.23c-2.24 2.59-3.62 5.81-3.95 9.22l-.25 2.64c-.22 2.28.64 4.52 2.31 6.08l3.14 2.92c1.29 1.2 3 1.83 4.76 1.76l6.79-.29c1.94-.08 3.68 1.18 4.2 3.06L53 94.07c.47 1.7.57 3.48.29 5.22l-.11.67c-.37 2.29-.12 4.64.7 6.81L57.4 116c.59 1.54 2.25 2.4 3.84 1.98l1.16-.31c2.43-.64 4.49-2.23 5.74-4.41l3.83-6.74c.86-1.5 1.77-2.87 3.05-4.03.81-.74 1.3-1.77 1.31-2.87l.23-5.16c-.18-1.8.5-3.57 1.83-4.8l3.03-2.79c1.24-1.14 2.08-2.64 2.42-4.29l.33-1.6c.25-1.21-.97-2.28-2.1-1.78-2.26 1-4.82.25-5.83-1.99L71.31 66.3c-.28-.63.18-1.34.86-1.34.35 0 .68.2.84.51l4.59 8.84c1.04 2 3.54 2.73 5.49 1.59l5.89-3.44c1.81-1.06-1.29-5.49-2.01-4.99l-.85.58c-.49.33-1.15.14-1.4-.39l-1.35-3c-.26-.56-.18-1.25.25-1.7.56-.57 1.44-.59 2.02-.09 1.63 1.42 3.47 2.58 5.6 2.93l5.14.84c.87.14 1.66.59 2.22 1.26l2.67 3.15c.81.95 1.41 2.05 1.79 3.24l1.69 5.34c.39 1.25 1.93 1.69 2.92.84l.93-.79c.36-.3.59-.74.64-1.2l.09-.9c.21-2 1.26-3.81 2.89-4.99l3.98-2.87c.49-.35 1.18-.17 1.42.39l2.19 4.96c.26.58.93.81 1.51.59.64-.25 1.36.18 1.45.87l.58 4.8.06.21 1.49 2.94c.28.56-.34 1.14-.88.82l-2.65-1.57c-.25-.15-.56-.11-.76.1l-.1.1c-.23.23-.25.61-.03.86l7.22 8.15c.78.88 1.81 1.49 2.96 1.75l9.13 2.05c.25.06.51-.05.66-.26l.02-.03c.23-.35.06-.82-.34-.95l-6.64-2.05c-1.94-.6-3.4-2.2-3.82-4.19l-.57-2.69c-.16-.77-.51-1.47-1.03-2.06-1.18-1.35-3.28-3.78-3.22-3.88.03-.05.06-.58.08-1.23.03-.86 1.09-1.24 1.66-.6l1.88 2.13c.39.44 1.07.42 1.44-.03l1.55-1.89c.73-.9.77-2.17.1-3.11l-1.11-1.55c-.81-1.13-.81-2.68.05-3.81.45-.59 1.18-.89 1.92-.87l4.68.13c1.19.03 2.29-.65 2.78-1.74l1.6-3.54c.66-1.46.66-3.14 0-4.6l-1.89-4.19c-.17-.38-.07-.83.24-1.1l2.4-2.1c.39-.34.98-.31 1.32.08l1.47 1.62c.11.13.19.28.23.45l.64 3.12c.15.74 1.06 1.01 1.59.48l1.36-1.34c.24-.24.34-.59.25-.92l-.85-3.18c-.09-.32 0-.66.22-.89l2.25-2.39c.16-.17.38-.28.62-.3l2.77-.2c.38-.03.71-.28.83-.65l3.3-10.1c.35-1.07-.02-2.24-.92-2.92l-1.4-1.05c-.47-.36-.51-1.06-.07-1.46l2.68-2.46c1.53-1.4 3.53-2.15 5.6-2.09l1.06.03c1.58.04 3.12-.47 4.35-1.45l1.7-1.34c1.42-1.12 3.17-1.76 4.99-1.82l.74-.02c.29-.01.45.32.27.54l-6.1 7.51c-.6.73-.89 1.67-.81 2.61l.16 1.96c.1 1.24 1.65 1.72 2.43.75l3.93-4.86c.17-.21.24-.48.2-.74l-.2-1.33c-.18-1.17.63-2.25 1.8-2.42l3.75-.54c.47-.07.93-.24 1.32-.51l4.96-3.32c.88-.54 1.22-1.6.88-2.55zM87.05 55.39c-.05.55-.56.94-1.1.85l-2.73-.46c-.57-.1-.92-.67-.74-1.22l.64-1.99c.08-.24.05-.51-.07-.73l-1.74-3.29c-.24-.45-.08-1.01.37-1.27l3.81-2.16c.54-.31 1.22-.02 1.38.58l.13.49c.11.43-.08.87-.47 1.08l-.8.42c-.53.28-.67.97-.29 1.44.68.83 1.62 1.99 1.76 2.24.15.29-.03 2.63-.15 4.02z"/>
    <linearGradient id="j" x1="156.0541" x2="156.0541" y1="7.6587" y2="152.3054" gradientUnits="userSpaceOnUse">
      <stop offset="0" stop-color="#aeea00"/>
      <stop offset=".2373" stop-color="#ade903"/>
      <stop offset=".3915" stop-color="#a9e40b"/>
      <stop offset=".522" stop-color="#a2dc1a"/>
      <stop offset=".6386" stop-color="#98d12f"/>
      <stop offset=".7459" stop-color="#8bc34a"/>
      <stop offset="1" stop-color="#8bc34a"/>
    </linearGradient>
    <path fill="url(#j)" d="m159.2 40.56-.42 6.21c-.06.86-.27 1.7-.62 2.49l-2.27 5.02c-.58 1.29-1.47 2.42-2.59 3.3l-3.13 2.46c-.16.13-.25.33-.24.54l.14 1.9c.03.47.56.73.96.48l6.37-4c1.24-.78 2-2.13 2.03-3.59.03-1.64.11-3.6.35-3.91.22-.29 1.09-1.02 1.87-1.65.68-.56.68-1.6-.01-2.16-.7-.57-1.06-1.46-.93-2.36l.53-3.66c.12-.86-.53-1.64-1.41-1.67-.32 0-.61.26-.63.6z"/>
    <linearGradient id="k" x1="144.288" x2="144.288" y1="7.6587" y2="152.3054" gradientUnits="userSpaceOnUse">
      <stop offset="0" stop-color="#aeea00"/>
      <stop offset=".2373" stop-color="#ade903"/>
      <stop offset=".3915" stop-color="#a9e40b"/>
      <stop offset=".522" stop-color="#a2dc1a"/>
      <stop offset=".6386" stop-color="#98d12f"/>
      <stop offset=".7459" stop-color="#8bc34a"/>
      <stop offset="1" stop-color="#8bc34a"/>
    </linearGradient>
    <path fill="url(#k)" d="M144.75 66.11h-.27c-.23 0-.44.13-.55.33l-.75 1.41c-.36.68-.34 1.51.07 2.16l1.04 1.66h.67l-.09-.67c-.06-.53.07-1.07.38-1.51.35-.49.48-1.11.35-1.7l-.25-1.18c-.05-.29-.31-.5-.6-.5z"/>
    <linearGradient id="l" x1="137.5756" x2="137.5756" y1="7.6587" y2="152.3054" gradientUnits="userSpaceOnUse">
      <stop offset="0" stop-color="#aeea00"/>
      <stop offset=".2373" stop-color="#ade903"/>
      <stop offset=".3915" stop-color="#a9e40b"/>
      <stop offset=".522" stop-color="#a2dc1a"/>
      <stop offset=".6386" stop-color="#98d12f"/>
      <stop offset=".7459" stop-color="#8bc34a"/>
      <stop offset="1" stop-color="#8bc34a"/>
    </linearGradient>
    <path fill="url(#l)" d="m133.1 88.09.78 1.83c.18.42.55.73 1 .84l4.04.94c.96.22 1.92-.37 2.15-1.32l1.05-4.28c.03-.11.04-.23.04-.34v-1.71c0-.61-.39-1.16-.97-1.36-.39-.13-.81-.1-1.17.1l-6.29 3.48c-.64.36-.91 1.14-.63 1.82z"/>
    <linearGradient id="m" x1="158.1996" x2="158.1996" y1="7.6587" y2="152.3054" gradientUnits="userSpaceOnUse">
      <stop offset="0" stop-color="#aeea00"/>
      <stop offset=".2373" stop-color="#ade903"/>
      <stop offset=".3915" stop-color="#a9e40b"/>
      <stop offset=".522" stop-color="#a2dc1a"/>
      <stop offset=".6386" stop-color="#98d12f"/>
      <stop offset=".7459" stop-color="#8bc34a"/>
      <stop offset="1" stop-color="#8bc34a"/>
    </linearGradient>
    <path fill="url(#m)" d="m157.22 95.67 2.16-.17c.14-.01.28-.07.39-.17.76-.73 1.96-.75 2.75-.05l2.6 2.32.18-.97-.94-2.67c-.29-.81-.89-1.47-1.66-1.83l-7.31-3.41c-.44-.21-.94-.28-1.42-.21l-1.75.26c-1.02.15-1.47 1.37-.79 2.15l3.22 3.69c.64.74 1.59 1.13 2.57 1.06z"/>
    <linearGradient id="n" x1="152.0035" x2="152.0035" y1="7.6587" y2="152.3054" gradientUnits="userSpaceOnUse">
      <stop offset="0" stop-color="#aeea00"/>
      <stop offset=".2373" stop-color="#ade903"/>
      <stop offset=".3915" stop-color="#a9e40b"/>
      <stop offset=".522" stop-color="#a2dc1a"/>
      <stop offset=".6386" stop-color="#98d12f"/>
      <stop offset=".7459" stop-color="#8bc34a"/>
      <stop offset="1" stop-color="#8bc34a"/>
    </linearGradient>
    <path fill="url(#n)" d="m159.46 98.01-.43-.02c-.37-.01-.67.29-.65.66l.09 1.76c.06 1.04-.92 1.83-1.92 1.57l-2.27-.59c-.33-.09-.53-.42-.45-.76l.52-2.1c.09-.37-.16-.73-.53-.77l-3.28-.38c-1.08-.13-2.15.24-2.93 1l-4.75 4.62c-.61.6-1.35 1.05-2.16 1.32l-3.65 1.24c-1.09.37-1.75 1.49-1.53 2.62l1.3 6.94c.06.3-.01.61-.19.85-.35.49-.25 1.18.23 1.54l1.38 1.04c1.25.95 2.88 1.23 4.38.77l5.45-1.68c1.12-.35 2.34-.11 3.25.63l1.41 1.15c.4.33.98.29 1.34-.08.47-.48 1.27-.38 1.59.22l.35.65c.6 1.11 1.6 1.96 2.8 2.38l1.85.64c1.17.41 2.47.23 3.49-.47l1.16-.8c.7-.48 1.18-1.21 1.35-2.04l1.81-8.7c.21-1.02-.1-2.08-.84-2.81l-3.25-3.25c-1.67-1.67-3.01-3.64-3.95-5.81l-.43-.96c-.09-.22-.3-.37-.54-.38z"/>
    <radialGradient id="o" cx="61.6667" cy="12.3333" r="103.9749" gradientUnits="userSpaceOnUse">
      <stop offset="0" stop-color="#aeea00"/>
      <stop offset=".2373" stop-color="#ade903"/>
      <stop offset=".3915" stop-color="#a9e40b"/>
      <stop offset=".522" stop-color="#a2dc1a"/>
      <stop offset=".6386" stop-color="#98d12f"/>
      <stop offset=".7459" stop-color="#8bc34a"/>
      <stop offset="1" stop-color="#8bc34a"/>
    </radialGradient>
    <path fill="url(#o)" d="m78.8 104.18-.34 2.25c-.26 1.69.95 3.25 2.65 3.44.8.09 1.57-.38 1.86-1.13l1.87-4.84c.19-.5.2-1.06.01-1.57l-.85-2.28c-.27-.74-1.2-.97-1.79-.45l-1.78 1.58c-.88.78-1.45 1.84-1.63 3z"/>
    <linearGradient id="p" x1="-15.2192" x2="-15.2192" y1="7.6587" y2="152.3054" gradientUnits="userSpaceOnUse">
      <stop offset="0" stop-color="#aeea00"/>
      <stop offset=".2373" stop-color="#ade903"/>
      <stop offset=".3915" stop-color="#a9e40b"/>
      <stop offset=".522" stop-color="#a2dc1a"/>
      <stop offset=".6386" stop-color="#98d12f"/>
      <stop offset=".7459" stop-color="#8bc34a"/>
      <stop offset="1" stop-color="#8bc34a"/>
    </linearGradient>
    <path fill="url(#p)" d="M-18.14 76.64c-1.66.4-4.15 1.01-5.5 1.35-.43.11-.58.64-.27.95l.33.34c.91.94 2.22 1.38 3.51 1.18l1.48-.22c.73-.11 1.48-.11 2.21.01l8.13 1.29c.5.08 1-.14 1.28-.56l.46-.68c.3-.45.08-1.07-.44-1.23-1.86-.55-5.72-1.69-7.91-2.33-1.07-.33-2.2-.36-3.28-.1z"/>
    <linearGradient id="q" x1="-.543" x2="-.543" y1="7.6587" y2="152.3054" gradientUnits="userSpaceOnUse">
      <stop offset="0" stop-color="#aeea00"/>
      <stop offset=".2373" stop-color="#ade903"/>
      <stop offset=".3915" stop-color="#a9e40b"/>
      <stop offset=".522" stop-color="#a2dc1a"/>
      <stop offset=".6386" stop-color="#98d12f"/>
      <stop offset=".7459" stop-color="#8bc34a"/>
      <stop offset="1" stop-color="#8bc34a"/>
    </linearGradient>
    <path fill="url(#q)" d="m-3.69 80.67-.85 1.3c-.08.12-.02.28.12.32l6.6 1.77c.41.11.86.01 1.18-.27.93-.79-3.63-3.33-5.77-3.68-.5-.09-1 .13-1.28.56z"/>
  </g>
  <path fill="#424242" d="M64 7c31.43 0 57 25.57 57 57s-25.57 57-57 57S7 95.43 7 64 32.57 7 64 7m0-3C30.86 4 4 30.86 4 64s26.86 60 60 60 60-26.86 60-60S97.14 4 64 4z" opacity=".2"/>
</svg>